<svg xmlns="http://www.w3.org/2000/svg" xmlns:xlink="http://www.w3.org/1999/xlink" viewBox="0 0 265 34" version="1.1" width="250px" height="33px">
    <!-- Generator: Sketch 52.6 (67491) - http://www.bohemiancoding.com/sketch -->
    <title>mcdonalds</title>
    <desc>Created with Sketch.</desc>
    <g id="Page-1" stroke="none" stroke-width="1" fill="none" fill-rule="evenodd" fill-color-id="-1" stroke-color-id="-1" recolor-fill="true" recolor-stroke="true">
        <g id="mcdonalds" fill="#000000" fill-color-id="0" stroke-color-id="-1" recolor-fill="true" recolor-stroke="true">
            <path d="M57.656,5.155 C49.05,5.155 43.636,11.145 43.636,19.519 C43.636,27.592 49.616,33.023 57.656,33.023 C64.77,33.023 70.333,28.964 71.106,21.907 L62.606,21.907 C62.191,24.701 60.644,26.424 57.604,26.424 C53.892,26.424 52.399,22.924 52.399,19.519 C52.399,15.868 53.172,11.753 58.068,11.753 C60.282,11.753 62.293,13.333 62.348,15.564 L70.846,15.564 C70.232,8.608 64.306,5.155 57.656,5.155 Z M151.556,5.154 C147.763,5.154 145.096,6.871 143.501,9.634 L143.393,9.634 L143.393,5.917 L134.894,5.917 L134.894,32.263 L143.653,32.263 L143.653,18.583 C143.653,14.737 145.336,12.256 148.393,12.257 C152.939,12.257 152.776,15.915 152.776,19.517 L152.776,32.263 L161.538,32.263 L161.538,15.356 C161.538,11.548 160.473,5.154 151.556,5.154 Z M177.13,5.154 C174.087,5.154 170.996,5.664 168.624,6.986 C166.254,8.352 164.604,10.588 164.451,14.039 L172.646,14.039 C173.059,11.806 174.604,10.743 177.026,10.743 C178.832,10.743 181.251,11.497 181.251,13.477 C181.251,15.107 180.426,15.61 178.933,15.917 C172.852,17.132 163.369,16.475 163.369,25.05 C163.369,30.485 167.389,33.021 172.487,33.021 C175.687,33.021 179.039,32.108 181.304,29.775 C181.409,30.638 181.509,31.447 181.818,32.263 L190.634,32.263 C189.603,30.182 189.604,27.743 189.604,25.508 L189.604,13.984 C189.604,6.527 183.465,5.154 177.129,5.154 L177.13,5.154 Z M181.15,19.926 C181.356,25.36 179.961,27.691 175.789,27.691 C173.83,27.691 172.131,26.826 172.131,24.7 C172.131,22.615 173.782,21.802 175.739,21.347 C177.649,20.84 179.914,20.691 181.149,19.927 L181.15,19.926 Z M192.464,0.045 L192.464,32.265 L201.224,32.265 L201.224,0.044 L192.464,0.045 Z M222.078,0.045 L222.078,8.762 L221.97,8.762 C220.168,6.376 217.642,5.157 214.344,5.157 C206.766,5.157 203.058,11.654 203.058,18.506 C203.058,25.917 206.615,33.023 215.014,33.023 C218.106,33.023 220.684,31.704 222.385,29.216 L222.485,29.216 L222.485,32.264 L230.838,32.264 L230.838,0.045 L222.078,0.045 Z M217.178,11.755 C220.992,11.755 222.385,15.26 222.385,19.065 C222.385,22.413 221.457,26.424 217.178,26.424 C213.158,26.424 211.821,22.414 211.821,18.811 C211.821,15.463 213.158,11.755 217.178,11.755 Z M232.666,0.045 L232.666,8.76 L236.766,8.76 L240.86,0.045 L232.666,0.045 Z M72.938,0.045 L72.938,32.265 L87.004,32.265 C96.944,32.265 103.037,26.578 103.037,16.023 C103.037,6.046 97.034,0.045 87.004,0.045 L72.938,0.045 Z M82.274,7.515 L86.21,7.515 C91.301,7.515 93.583,10.867 93.583,15.998 C93.583,21.642 91.743,24.798 86.21,24.798 L82.274,24.798 L82.274,7.515 Z M6.758,1.77635684e-15 L9.76996262e-15,32.264 L9.649,32.264 L12.136,19.451 C12.402063,18.0352739 12.6284848,16.6123844 12.815,15.184 L12.912,15.184 C13.064,16.076 13.457,17.842 13.852,19.349 L17.358,32.264 L26.948,32.264 L30.448,19.349 C30.847,17.842 31.238,16.076 31.388,15.184 L31.491,15.184 C31.576,15.869 31.845,17.801 32.168,19.451 L34.655,32.264 L44.302,32.264 L37.545,-7.10542736e-15 L27.319,-7.10542736e-15 L23.222,16.205 C22.879,17.461 22.456,19.495 22.2,20.556 L22.104,20.556 C21.844,19.495 21.424,17.461 21.082,16.205 L16.983,-7.10542736e-15 L6.758,1.77635684e-15 Z M118.94,5.155 C110.304,5.155 104.864,11.198 104.864,19.113 C104.864,27.03 110.302,33.071 118.938,33.071 C127.575,33.071 133.01,27.031 133.01,19.113 C133.01,11.198 127.576,5.155 118.94,5.155 Z M118.938,11.753 C122.725,11.753 124.245,14.896 124.245,19.113 C124.245,23.334 122.726,26.473 118.939,26.473 C115.149,26.473 113.629,23.334 113.629,19.113 C113.629,14.895 115.148,11.753 118.938,11.753 Z M251.281,5.152 C246.095,5.152 239,6.877 239,13.224 C239,20.331 246.044,20.48 251.487,21.852 C253.01,22.21 255.709,22.613 255.708,24.645 C255.708,26.729 253.316,27.439 251.637,27.439 C250.416,27.439 249.362,27.134 248.55,26.524 C247.685,25.862 247.127,24.895 247.127,23.579 L238.768,23.579 C239.024,30.943 245.433,33.021 251.69,33.021 C257.642,33.021 264.583,30.685 264.583,23.631 C264.583,21.448 263.213,17.589 257.871,16.52 C253.902,15.662 247.877,15.206 247.877,12.718 C247.877,10.888 250.167,10.736 251.588,10.736 C252.658,10.736 253.508,10.94 254.221,11.396 C254.932,11.854 255.341,12.563 255.341,13.68 L263.44,13.68 C263.136,6.828 257.081,5.152 251.281,5.152 Z" id="Shape" fill-color-id="0" stroke-color-id="-1" recolor-fill="true" recolor-stroke="true" fill="#000000"/>
        </g>
    </g>
</svg>